<svg width="150" height="150" viewBox="0 0 150 150" fill="none" xmlns="http://www.w3.org/2000/svg">
<path d="M0 9C0 4.02944 4.02944 0 9 0H141C145.971 0 150 4.02944 150 9V141C150 145.971 145.971 150 141 150H9C4.02944 150 0 145.971 0 141V9Z" fill="#5AB1BB"/>
<path d="M64.8333 75C59.2417 75 54.6667 79.575 54.6667 85.1667C54.6667 90.7583 59.2417 95.3333 64.8333 95.3333C70.425 95.3333 75 90.7583 75 85.1667C75 79.575 70.425 75 64.8333 75ZM44.5 54.6667C38.9083 54.6667 34.3333 59.2417 34.3333 64.8333C34.3333 70.425 38.9083 75 44.5 75C50.0917 75 54.6667 70.425 54.6667 64.8333C54.6667 59.2417 50.0917 54.6667 44.5 54.6667ZM44.5 95.3333C38.9083 95.3333 34.3333 99.9083 34.3333 105.5C34.3333 111.092 38.9083 115.667 44.5 115.667C50.0917 115.667 54.6667 111.092 54.6667 105.5C54.6667 99.9083 50.0917 95.3333 44.5 95.3333ZM105.5 54.6667C111.092 54.6667 115.667 50.0917 115.667 44.5C115.667 38.9083 111.092 34.3333 105.5 34.3333C99.9083 34.3333 95.3333 38.9083 95.3333 44.5C95.3333 50.0917 99.9083 54.6667 105.5 54.6667ZM85.1667 95.3333C79.575 95.3333 75 99.9083 75 105.5C75 111.092 79.575 115.667 85.1667 115.667C90.7583 115.667 95.3333 111.092 95.3333 105.5C95.3333 99.9083 90.7583 95.3333 85.1667 95.3333ZM105.5 75C99.9083 75 95.3333 79.575 95.3333 85.1667C95.3333 90.7583 99.9083 95.3333 105.5 95.3333C111.092 95.3333 115.667 90.7583 115.667 85.1667C115.667 79.575 111.092 75 105.5 75ZM85.1667 54.6667C79.575 54.6667 75 59.2417 75 64.8333C75 70.425 79.575 75 85.1667 75C90.7583 75 95.3333 70.425 95.3333 64.8333C95.3333 59.2417 90.7583 54.6667 85.1667 54.6667ZM64.8333 34.3333C59.2417 34.3333 54.6667 38.9083 54.6667 44.5C54.6667 50.0917 59.2417 54.6667 64.8333 54.6667C70.425 54.6667 75 50.0917 75 44.5C75 38.9083 70.425 34.3333 64.8333 34.3333Z" fill="#F7DD72"/>
</svg>
