<svg width="160" height="103" viewBox="0 0 160 103" fill="none" xmlns="http://www.w3.org/2000/svg">
<path d="M106.976 93.08C107.322 93.08 107.589 93.24 107.776 93.56C107.989 93.88 108.096 94.32 108.096 94.88C108.096 95.92 107.842 96.7467 107.336 97.36C105.842 99.1467 104.389 100.4 102.976 101.12C101.589 101.84 99.909 102.2 97.9356 102.2C96.549 102.2 95.269 102.027 94.0956 101.68C92.9223 101.333 91.4956 100.813 89.8156 100.12C88.2956 99.4533 86.829 98.9067 85.4156 98.48C84.0556 100.96 82.0156 102.2 79.2956 102.2C77.8023 102.2 76.6156 101.867 75.7356 101.2C74.829 100.507 74.3756 99.6267 74.3756 98.56C74.3756 97.2533 75.0023 96.1733 76.2556 95.32C77.509 94.44 79.1756 94 81.2556 94H81.7756L82.4956 82.36C82.6556 79.6933 83.1356 77.4933 83.9356 75.76C84.7356 74.0267 85.8423 72.5467 87.2556 71.32C88.4823 70.2533 89.8823 69.4533 91.4556 68.92C93.029 68.36 94.6956 68.08 96.4556 68.08C99.3356 68.08 101.549 68.8267 103.096 70.32C104.642 71.8133 105.416 73.76 105.416 76.16C105.416 77.7867 105.122 79.1067 104.536 80.12C103.949 81.1067 103.136 81.6 102.096 81.6C101.349 81.6 100.762 81.4267 100.336 81.08C99.909 80.7067 99.6956 80.1867 99.6956 79.52C99.6956 79.28 99.749 78.84 99.8556 78.2C100.016 77.4533 100.096 76.7867 100.096 76.2C100.096 75.08 99.7623 74.2 99.0956 73.56C98.4556 72.8933 97.469 72.56 96.1356 72.56C93.789 72.56 91.9756 73.3333 90.6956 74.88C89.4156 76.4 88.6023 78.8 88.2556 82.08L87.3356 91.16C87.2023 92.44 87.029 93.5467 86.8156 94.48C88.5223 94.7733 90.6556 95.24 93.2156 95.88C94.709 96.2533 95.8556 96.52 96.6556 96.68C97.4556 96.84 98.1623 96.92 98.7756 96.92C100.322 96.92 101.642 96.6667 102.736 96.16C103.856 95.6267 104.909 94.7867 105.896 93.64C106.216 93.2667 106.576 93.08 106.976 93.08Z" fill="white"/>
<path d="M128.453 89.72C128.799 89.72 129.066 89.8933 129.253 90.24C129.439 90.5867 129.533 91.0267 129.533 91.56C129.533 92.84 129.146 93.6 128.373 93.84C126.773 94.4 125.013 94.72 123.093 94.8C122.586 97.04 121.586 98.84 120.093 100.2C118.599 101.533 116.906 102.2 115.013 102.2C113.413 102.2 112.039 101.813 110.893 101.04C109.773 100.267 108.919 99.24 108.333 97.96C107.746 96.68 107.453 95.2933 107.453 93.8C107.453 91.7733 107.839 89.9733 108.613 88.4C109.386 86.8 110.453 85.56 111.813 84.68C113.173 83.7733 114.679 83.32 116.333 83.32C118.359 83.32 119.986 84.0267 121.213 85.44C122.466 86.8267 123.199 88.5467 123.413 90.6C124.666 90.52 126.159 90.2533 127.893 89.8C128.106 89.7467 128.293 89.72 128.453 89.72ZM115.333 97.96C116.186 97.96 116.919 97.6133 117.533 96.92C118.173 96.2267 118.599 95.2267 118.813 93.92C117.986 93.36 117.346 92.6267 116.893 91.72C116.466 90.8133 116.253 89.8533 116.253 88.84C116.253 88.4133 116.293 87.9867 116.373 87.56H116.173C115.106 87.56 114.213 88.08 113.493 89.12C112.799 90.1333 112.453 91.5733 112.453 93.44C112.453 94.9067 112.733 96.0267 113.293 96.8C113.879 97.5733 114.559 97.96 115.333 97.96Z" fill="white"/>
<path d="M146.29 89.84C146.37 89.8133 146.504 89.8 146.69 89.8C147.09 89.8 147.397 89.9333 147.61 90.2C147.824 90.4667 147.93 90.8267 147.93 91.28C147.93 92.1067 147.77 92.76 147.45 93.24C147.13 93.6933 146.65 94.0267 146.01 94.24C144.784 94.64 143.477 94.84 142.09 94.84C140.917 94.84 139.81 94.68 138.77 94.36C137.997 95.6133 137.144 96.9067 136.21 98.24C135.144 99.76 134.224 100.8 133.45 101.36C132.677 101.92 131.797 102.2 130.81 102.2C129.717 102.2 128.85 101.773 128.21 100.92C127.597 100.067 127.21 98.72 127.05 96.88C126.73 93.1467 126.57 89.88 126.57 87.08V85.68C126.597 84.8 126.837 84.1867 127.29 83.84C127.744 83.4933 128.424 83.32 129.33 83.32C130.024 83.32 130.53 83.48 130.85 83.8C131.197 84.0933 131.37 84.6 131.37 85.32C131.37 88.3867 131.557 92.3733 131.93 97.28C133.53 94.9067 134.73 93.0133 135.53 91.6C135.13 90.8267 134.93 89.9067 134.93 88.84C134.93 87.9333 135.13 87.0533 135.53 86.2C135.93 85.3467 136.477 84.6533 137.17 84.12C137.864 83.5867 138.65 83.32 139.53 83.32C140.304 83.32 140.93 83.6 141.41 84.16C141.89 84.6933 142.13 85.48 142.13 86.52C142.13 87.72 141.81 89.0933 141.17 90.64C142.184 90.5867 143.53 90.3867 145.21 90.04L146.29 89.84Z" fill="white"/>
<path d="M158.779 94.28C159.126 94.28 159.392 94.44 159.579 94.76C159.792 95.08 159.899 95.52 159.899 96.08C159.899 97.04 159.672 97.8667 159.219 98.56C158.472 99.7067 157.486 100.6 156.259 101.24C155.059 101.88 153.619 102.2 151.939 102.2C149.379 102.2 147.392 101.44 145.979 99.92C144.566 98.3733 143.859 96.2933 143.859 93.68C143.859 91.84 144.246 90.1333 145.019 88.56C145.792 86.96 146.859 85.6933 148.219 84.76C149.606 83.8267 151.166 83.36 152.899 83.36C154.446 83.36 155.686 83.8267 156.619 84.76C157.552 85.6667 158.019 86.9067 158.019 88.48C158.019 90.32 157.352 91.9067 156.019 93.24C154.712 94.5467 152.472 95.5867 149.299 96.36C149.939 97.5867 151.019 98.2 152.539 98.2C153.632 98.2 154.526 97.9467 155.219 97.44C155.939 96.9333 156.766 96.08 157.699 94.88C158.019 94.48 158.379 94.28 158.779 94.28ZM152.219 87.28C151.232 87.28 150.392 87.8533 149.699 89C149.032 90.1467 148.699 91.5333 148.699 93.16V93.24C150.272 92.8667 151.512 92.3067 152.419 91.56C153.326 90.8133 153.779 89.9467 153.779 88.96C153.779 88.4533 153.632 88.0533 153.339 87.76C153.072 87.44 152.699 87.28 152.219 87.28Z" fill="white"/>
<path d="M52.9423 46.728C53.4969 46.728 53.9236 46.984 54.2223 47.496C54.5636 48.008 54.7343 48.712 54.7343 49.608C54.7343 51.272 54.3289 52.5947 53.5183 53.576C51.1289 56.4347 48.8036 58.44 46.5423 59.592C44.3236 60.744 41.6356 61.32 38.4783 61.32C36.2596 61.32 34.2116 61.0427 32.3343 60.488C30.4569 59.9333 28.1743 59.1013 25.4863 57.992C23.0543 56.9253 20.7076 56.0507 18.4463 55.368C16.2703 59.336 13.0063 61.32 8.65426 61.32C6.26492 61.32 4.36626 60.7867 2.95826 59.72C1.50759 58.6107 0.782257 57.2027 0.782257 55.496C0.782257 53.4053 1.78492 51.6773 3.79026 50.312C5.79559 48.904 8.46226 48.2 11.7903 48.2H12.6223L13.7743 29.576C14.0303 25.3093 14.7983 21.7893 16.0783 19.016C17.3583 16.2427 19.1289 13.8747 21.3903 11.912C23.3529 10.2053 25.5929 8.92533 28.1103 8.072C30.6276 7.176 33.2943 6.728 36.1103 6.728C40.7183 6.728 44.2596 7.92266 46.7343 10.312C49.2089 12.7013 50.4463 15.816 50.4463 19.656C50.4463 22.2587 49.9769 24.3707 49.0383 25.992C48.0996 27.5707 46.7983 28.36 45.1343 28.36C43.9396 28.36 43.0009 28.0827 42.3183 27.528C41.6356 26.9307 41.2943 26.0987 41.2943 25.032C41.2943 24.648 41.3796 23.944 41.5503 22.92C41.8063 21.7253 41.9343 20.6587 41.9343 19.72C41.9343 17.928 41.4009 16.52 40.3343 15.496C39.3103 14.4293 37.7316 13.896 35.5983 13.896C31.8436 13.896 28.9423 15.1333 26.8943 17.608C24.8463 20.04 23.5449 23.88 22.9903 29.128L21.5183 43.656C21.3049 45.704 21.0276 47.4747 20.6863 48.968C23.4169 49.4373 26.8303 50.184 30.9263 51.208C33.3156 51.8053 35.1503 52.232 36.4303 52.488C37.7103 52.744 38.8409 52.872 39.8223 52.872C42.2969 52.872 44.4089 52.4667 46.1583 51.656C47.9503 50.8027 49.6356 49.4587 51.2143 47.624C51.7263 47.0267 52.3023 46.728 52.9423 46.728Z" fill="white"/>
<path d="M83.2098 46.728C83.7644 46.728 84.1911 46.984 84.4898 47.496C84.8311 48.008 85.0018 48.712 85.0018 49.608C85.0018 51.3147 84.5964 52.6373 83.7858 53.576C82.2071 55.496 79.9671 57.2667 77.0658 58.888C74.2071 60.5093 71.1351 61.32 67.8498 61.32C63.3698 61.32 59.8924 60.104 57.4178 57.672C54.9431 55.24 53.7058 51.912 53.7058 47.688C53.7058 44.744 54.3244 42.0133 55.5618 39.496C56.7991 36.936 58.5058 34.9093 60.6818 33.416C62.9004 31.9227 65.3964 31.176 68.1698 31.176C70.6444 31.176 72.6284 31.9227 74.1218 33.416C75.6151 34.8667 76.3618 36.8507 76.3618 39.368C76.3618 42.312 75.2951 44.8507 73.1618 46.984C71.0711 49.0747 67.5084 50.7387 62.4738 51.976C63.5404 53.9387 65.5671 54.92 68.5538 54.92C70.4738 54.92 72.6498 54.2587 75.0818 52.936C77.5564 51.5707 79.6898 49.8 81.4818 47.624C81.9938 47.0267 82.5698 46.728 83.2098 46.728ZM67.0818 37.448C65.5031 37.448 64.1591 38.3653 63.0498 40.2C61.9831 42.0347 61.4498 44.2533 61.4498 46.856V46.984C63.9671 46.3867 65.9511 45.4907 67.4018 44.296C68.8524 43.1013 69.5778 41.7147 69.5778 40.136C69.5778 39.3253 69.3431 38.6853 68.8738 38.216C68.4471 37.704 67.8498 37.448 67.0818 37.448Z" fill="white"/>
<path d="M87.3503 61.32C84.7049 61.32 82.5929 60.36 81.0143 58.44C79.4356 56.52 78.6463 54.0027 78.6463 50.888C78.6463 47.4747 79.4356 44.2533 81.0143 41.224C82.5929 38.152 84.6836 35.6987 87.2863 33.864C89.9316 31.9867 92.7263 31.048 95.6703 31.048C96.6089 31.048 97.2276 31.24 97.5263 31.624C97.8676 31.9653 98.1449 32.6053 98.3583 33.544C99.2543 33.3733 100.193 33.288 101.174 33.288C103.265 33.288 104.31 34.0347 104.31 35.528C104.31 36.424 103.99 38.5573 103.35 41.928C102.369 46.8347 101.878 50.248 101.878 52.168C101.878 52.808 102.028 53.32 102.326 53.704C102.668 54.088 103.094 54.28 103.606 54.28C104.417 54.28 105.398 53.768 106.55 52.744C107.702 51.6773 109.26 49.9707 111.222 47.624C111.734 47.0267 112.31 46.728 112.95 46.728C113.505 46.728 113.932 46.984 114.23 47.496C114.572 48.008 114.742 48.712 114.742 49.608C114.742 51.3147 114.337 52.6373 113.526 53.576C111.777 55.752 109.921 57.5867 107.958 59.08C105.996 60.5733 104.097 61.32 102.262 61.32C100.854 61.32 99.5529 60.8507 98.3583 59.912C97.2063 58.9307 96.3316 57.608 95.7343 55.944C93.5156 59.528 90.7209 61.32 87.3503 61.32ZM89.6543 54.856C90.5929 54.856 91.4889 54.3013 92.3423 53.192C93.1956 52.0827 93.8143 50.6107 94.1983 48.776L96.5663 37C94.7743 37.0427 93.1103 37.7253 91.5743 39.048C90.0809 40.328 88.8863 42.0347 87.9903 44.168C87.0943 46.3013 86.6463 48.5627 86.6463 50.952C86.6463 52.2747 86.9023 53.256 87.4143 53.896C87.9689 54.536 88.7156 54.856 89.6543 54.856Z" fill="white"/>
<path d="M134.452 43.08C135.646 43.08 136.244 43.976 136.244 45.768C136.244 49.1387 133.598 50.824 128.308 50.824C127.284 50.824 125.812 50.632 123.892 50.248C124.446 52.8933 124.894 55.8373 125.236 59.08C125.62 62.28 125.812 64.9253 125.812 67.016C125.812 71.624 125.065 75.144 123.572 77.576C122.078 80.008 120.116 81.224 117.684 81.224C114.612 81.224 112.414 79.048 111.092 74.696C109.812 70.344 109.172 63.7733 109.172 54.984C109.172 46.792 110.046 38.4933 111.796 30.088C113.588 21.64 116.02 14.664 119.092 9.16C122.206 3.61333 125.62 0.839996 129.332 0.839996C131.337 0.839996 132.894 1.736 134.004 3.528C135.156 5.32 135.732 7.73066 135.732 10.76C135.732 20.7867 129.737 31.7093 117.748 43.528C117.321 47.7093 117.108 51.3787 117.108 54.536C117.108 58.9307 117.257 63.432 117.556 68.04C117.854 72.6907 118.345 75.016 119.028 75.016C120.308 75.016 120.948 72.7973 120.948 68.36C120.948 65.032 120.713 61.8107 120.244 58.696C119.817 55.5813 119.22 52.296 118.452 48.84C118.409 48.2853 118.58 47.5813 118.964 46.728C119.39 45.8747 119.902 45.128 120.5 44.488C121.097 43.848 121.63 43.528 122.1 43.528C122.953 43.528 123.977 43.5707 125.172 43.656C125.556 43.6987 126.004 43.72 126.516 43.72C128.222 43.72 130.121 43.5707 132.212 43.272C132.553 43.2293 132.916 43.1867 133.3 43.144C133.684 43.1013 134.068 43.08 134.452 43.08ZM127.988 7.176C127.22 7.176 126.26 8.47733 125.108 11.08C123.998 13.6827 122.889 17.1387 121.78 21.448C120.67 25.7147 119.71 30.2373 118.9 35.016C122.313 31.1333 124.937 27.1013 126.772 22.92C128.606 18.696 129.545 14.7493 129.588 11.08C129.588 8.47733 129.054 7.176 127.988 7.176Z" fill="white"/>
</svg>
