<svg width="195" height="53" viewBox="0 0 195 53" fill="none" xmlns="http://www.w3.org/2000/svg">
<path d="M0 9.99999C0 5.02943 4.02944 0.999989 9 0.999989H186C190.971 0.999989 195 5.02943 195 9.99999V38C195 42.9706 190.971 47 186 47H9C4.02944 47 0 42.9706 0 38V9.99999Z" fill="#4E6766"/>
<path d="M70.5108 25.08C70.8574 25.08 71.1241 25.24 71.3108 25.56C71.5241 25.88 71.6308 26.32 71.6308 26.88C71.6308 27.92 71.3774 28.7467 70.8708 29.36C69.3774 31.1467 67.9241 32.4 66.5108 33.12C65.1241 33.84 63.4441 34.2 61.4708 34.2C60.0841 34.2 58.8041 34.0267 57.6308 33.68C56.4574 33.3333 55.0308 32.8133 53.3508 32.12C51.8308 31.4533 50.3641 30.9067 48.9508 30.48C47.5908 32.96 45.5508 34.2 42.8308 34.2C41.3374 34.2 40.1508 33.8667 39.2708 33.2C38.3641 32.5067 37.9108 31.6267 37.9108 30.56C37.9108 29.2533 38.5374 28.1733 39.7908 27.32C41.0441 26.44 42.7108 26 44.7908 26H45.3108L46.0308 14.36C46.1908 11.6933 46.6708 9.49332 47.4708 7.75999C48.2708 6.02665 49.3774 4.54665 50.7908 3.31999C52.0174 2.25332 53.4174 1.45332 54.9908 0.919988C56.5641 0.359987 58.2308 0.0799866 59.9908 0.0799866C62.8708 0.0799866 65.0841 0.826653 66.6308 2.31999C68.1774 3.81332 68.9508 5.75999 68.9508 8.15999C68.9508 9.78665 68.6575 11.1067 68.0708 12.12C67.4841 13.1067 66.6708 13.6 65.6308 13.6C64.8841 13.6 64.2974 13.4267 63.8708 13.08C63.4441 12.7067 63.2308 12.1867 63.2308 11.52C63.2308 11.28 63.2841 10.84 63.3908 10.2C63.5508 9.45332 63.6308 8.78665 63.6308 8.19999C63.6308 7.07999 63.2975 6.19999 62.6308 5.55999C61.9908 4.89332 61.0041 4.55999 59.6708 4.55999C57.3241 4.55999 55.5108 5.33332 54.2308 6.87999C52.9508 8.39999 52.1374 10.8 51.7908 14.08L50.8708 23.16C50.7374 24.44 50.5641 25.5467 50.3508 26.48C52.0574 26.7733 54.1908 27.24 56.7508 27.88C58.2441 28.2533 59.3908 28.52 60.1908 28.68C60.9908 28.84 61.6974 28.92 62.3108 28.92C63.8575 28.92 65.1774 28.6667 66.2708 28.16C67.3908 27.6267 68.4441 26.7867 69.4308 25.64C69.7508 25.2667 70.1108 25.08 70.5108 25.08Z" fill="white"/>
<path d="M91.988 21.72C92.3346 21.72 92.6013 21.8933 92.788 22.24C92.9746 22.5867 93.068 23.0267 93.068 23.56C93.068 24.84 92.6813 25.6 91.908 25.84C90.308 26.4 88.548 26.72 86.628 26.8C86.1213 29.04 85.1213 30.84 83.628 32.2C82.1346 33.5333 80.4413 34.2 78.548 34.2C76.948 34.2 75.5746 33.8133 74.428 33.04C73.308 32.2667 72.4546 31.24 71.868 29.96C71.2813 28.68 70.988 27.2933 70.988 25.8C70.988 23.7733 71.3746 21.9733 72.148 20.4C72.9213 18.8 73.988 17.56 75.348 16.68C76.708 15.7733 78.2146 15.32 79.868 15.32C81.8946 15.32 83.5213 16.0267 84.748 17.44C86.0013 18.8267 86.7346 20.5467 86.948 22.6C88.2013 22.52 89.6946 22.2533 91.428 21.8C91.6413 21.7467 91.828 21.72 91.988 21.72ZM78.868 29.96C79.7213 29.96 80.4546 29.6133 81.068 28.92C81.708 28.2267 82.1346 27.2267 82.348 25.92C81.5213 25.36 80.8813 24.6267 80.428 23.72C80.0013 22.8133 79.788 21.8533 79.788 20.84C79.788 20.4133 79.828 19.9867 79.908 19.56H79.708C78.6413 19.56 77.748 20.08 77.028 21.12C76.3346 22.1333 75.988 23.5733 75.988 25.44C75.988 26.9067 76.268 28.0267 76.828 28.8C77.4146 29.5733 78.0946 29.96 78.868 29.96Z" fill="white"/>
<path d="M103.195 16.68C103.862 16.68 104.328 16.7867 104.595 17C104.888 17.1867 105.035 17.5733 105.035 18.16C105.035 18.48 105.022 18.7333 104.995 18.92C104.888 19.7467 104.555 21.88 103.995 25.32C103.595 27.64 103.342 29.1733 103.235 29.92C102.222 36.8 100.848 42.2267 99.1148 46.2C97.4082 50.2 95.1148 52.2 92.2348 52.2C90.8748 52.2 89.7682 51.7733 88.9148 50.92C88.0615 50.0933 87.6348 49 87.6348 47.64C87.6348 45.7467 88.3815 43.7067 89.8748 41.52C91.3682 39.36 94.1682 36.6933 98.2748 33.52L98.5148 31.96C98.0615 32.68 97.4615 33.24 96.7148 33.64C95.9948 34.0133 95.2748 34.2 94.5548 34.2C92.9015 34.2 91.5815 33.6 90.5948 32.4C89.6082 31.2 89.1148 29.6267 89.1148 27.68C89.1148 25.5467 89.6082 23.5333 90.5948 21.64C91.5815 19.72 92.8882 18.1867 94.5148 17.04C96.1682 15.8667 97.9148 15.28 99.7548 15.28C100.342 15.28 100.728 15.4 100.915 15.64C101.128 15.8533 101.302 16.2533 101.435 16.84C101.942 16.7333 102.528 16.68 103.195 16.68ZM95.9948 30.16C96.6082 30.16 97.1948 29.7867 97.7548 29.04C98.3148 28.2933 98.7148 27.2267 98.9548 25.84L100.235 19C99.1415 19.0267 98.1282 19.4533 97.1948 20.28C96.2615 21.08 95.5148 22.1467 94.9548 23.48C94.3948 24.8133 94.1148 26.2267 94.1148 27.72C94.1148 28.5467 94.2748 29.16 94.5948 29.56C94.9415 29.96 95.4082 30.16 95.9948 30.16ZM92.6748 48.32C93.3415 48.32 94.0882 47.52 94.9148 45.92C95.7682 44.32 96.5815 41.7733 97.3548 38.28C95.3015 40.04 93.8215 41.6267 92.9148 43.04C92.0082 44.4533 91.5548 45.6933 91.5548 46.76C91.5548 47.2133 91.6348 47.5867 91.7948 47.88C91.9815 48.1733 92.2748 48.32 92.6748 48.32Z" fill="white"/>
<path d="M136.03 0.319986C136.723 0.319986 137.31 0.493319 137.79 0.839986C138.27 1.15999 138.51 1.55999 138.51 2.03999C138.51 2.89332 138.243 3.58665 137.71 4.11999C137.176 4.62665 136.416 4.87999 135.43 4.87999C133.883 4.87999 132.71 4.89332 131.91 4.91999C131.856 5.23999 131.616 6.67999 131.19 9.23999C130.71 12.0933 130.416 13.84 130.31 14.48L129.47 19.72C128.883 23.64 128.416 26.92 128.07 29.56C128.63 29.5333 129.39 29.52 130.35 29.52C131.763 29.52 132.723 29.7067 133.23 30.08C133.736 30.4533 133.99 31.0133 133.99 31.76C133.99 32.4533 133.71 33.04 133.15 33.52C132.616 34 131.856 34.24 130.87 34.24C130.203 34.24 129.15 34.2133 127.71 34.16C126.376 34.1067 125.496 34.08 125.07 34.08C123.39 34.08 121.55 34.2267 119.55 34.52C118.67 34.6533 118.043 34.72 117.67 34.72C117.083 34.72 116.59 34.56 116.19 34.24C115.79 33.92 115.59 33.4533 115.59 32.84C115.59 31.88 116.016 31.1333 116.87 30.6C117.723 30.0667 118.923 29.7867 120.47 29.76L122.35 29.72L122.47 28.84C123.11 24.5733 123.576 21.56 123.87 19.8L124.75 14.56C125.283 11.4667 125.763 8.27999 126.19 4.99999L122.83 5.03999C121.87 5.03999 121.203 4.89332 120.83 4.59999C120.483 4.27999 120.31 3.83999 120.31 3.27999C120.31 1.46665 121.616 0.493321 124.23 0.359988C125.456 0.306653 126.95 0.279986 128.71 0.279986L136.03 0.319986Z" fill="white"/>
<path d="M140.834 34.2C139.821 34.2 139.101 33.6667 138.674 32.6C138.274 31.5333 138.074 29.8267 138.074 27.48C138.074 24.0133 138.568 20.72 139.554 17.6C139.794 16.8267 140.181 16.2667 140.714 15.92C141.274 15.5467 142.048 15.36 143.034 15.36C143.568 15.36 143.941 15.4267 144.154 15.56C144.368 15.6933 144.474 15.9467 144.474 16.32C144.474 16.7467 144.274 17.7067 143.874 19.2C143.608 20.2667 143.394 21.2 143.234 22C143.074 22.8 142.941 23.7867 142.834 24.96C143.714 22.6667 144.701 20.8 145.794 19.36C146.888 17.92 147.954 16.8933 148.994 16.28C150.061 15.6667 151.034 15.36 151.914 15.36C152.768 15.36 153.408 15.5867 153.834 16.04C154.288 16.4667 154.514 17.1067 154.514 17.96C154.514 18.6533 154.368 19.96 154.074 21.88C153.808 23.5067 153.594 25.0533 153.434 26.52C153.274 27.96 153.194 29.5733 153.194 31.36C153.194 32.3733 152.981 33.1067 152.554 33.56C152.154 33.9867 151.488 34.2 150.554 34.2C149.674 34.2 149.034 33.9733 148.634 33.52C148.234 33.0667 148.034 32.3867 148.034 31.48C148.034 30.4133 148.221 28.6533 148.594 26.2C148.914 24.0667 149.074 22.7067 149.074 22.12C149.074 21.6933 148.928 21.48 148.634 21.48C148.288 21.48 147.794 21.9333 147.154 22.84C146.541 23.72 145.901 24.8933 145.234 26.36C144.594 27.8267 144.074 29.3733 143.674 31C143.381 32.2533 143.034 33.1067 142.634 33.56C142.261 33.9867 141.661 34.2 140.834 34.2Z" fill="white"/>
</svg>
