<svg width="195" height="53" viewBox="0 0 195 53" fill="none" xmlns="http://www.w3.org/2000/svg">
<path d="M0 9C0 4.02944 4.02944 0 9 0H186C190.971 0 195 4.02944 195 9V37C195 41.9706 190.971 46 186 46H9C4.02944 46 0 41.9706 0 37V9Z" fill="#4E6766"/>
<path d="M49.1738 34.32C45.6271 34.32 42.7871 33.6533 40.6538 32.32C38.5204 30.96 37.4538 28.8933 37.4538 26.12C37.4538 24.6533 37.7071 23.5333 38.2137 22.76C38.7204 21.9867 39.4671 21.6 40.4538 21.6C41.1738 21.6 41.7604 21.7867 42.2137 22.16C42.6671 22.5333 42.8937 23.0133 42.8937 23.6C42.8937 24.1333 42.8538 24.6 42.7738 25C42.7738 25.1067 42.7471 25.2933 42.6937 25.56C42.6671 25.8267 42.6538 26.1067 42.6538 26.4C42.6538 27.6 43.2538 28.4933 44.4538 29.08C45.6804 29.6667 47.3871 29.96 49.5737 29.96C51.8404 29.96 53.6138 29.56 54.8938 28.76C56.1738 27.9333 56.8138 26.7867 56.8138 25.32C56.8138 24.4133 56.5204 23.64 55.9338 23C55.3471 22.3333 54.6137 21.7867 53.7337 21.36C52.8537 20.9067 51.6138 20.36 50.0138 19.72C47.9604 18.92 46.2804 18.16 44.9738 17.44C43.6938 16.72 42.5871 15.7467 41.6538 14.52C40.7471 13.2667 40.2938 11.72 40.2938 9.88C40.2938 7.96 40.8004 6.25333 41.8138 4.76C42.8538 3.26666 44.3337 2.10666 46.2537 1.28C48.2004 0.453332 50.4804 0.0399985 53.0938 0.0399985C55.0404 0.0399985 56.8271 0.333332 58.4538 0.919999C60.0804 1.48 61.3738 2.34666 62.3338 3.52C63.3204 4.69333 63.8138 6.13333 63.8138 7.84C63.8138 9.52 63.5604 10.7867 63.0537 11.64C62.5471 12.4933 61.8004 12.92 60.8138 12.92C60.1204 12.92 59.5337 12.7067 59.0537 12.28C58.6004 11.8533 58.3738 11.3467 58.3738 10.76C58.3738 10.2533 58.4138 9.78667 58.4938 9.36C58.5738 8.56 58.6138 8.05333 58.6138 7.84C58.6138 6.72 58.0671 5.86666 56.9738 5.28C55.8804 4.69333 54.5204 4.4 52.8937 4.4C50.6004 4.4 48.8404 4.82667 47.6138 5.68C46.4138 6.50667 45.8138 7.68 45.8138 9.2C45.8138 10.2133 46.1204 11.08 46.7337 11.8C47.3737 12.52 48.1604 13.12 49.0938 13.6C50.0271 14.08 51.3338 14.6533 53.0138 15.32C55.0404 16.1467 56.6671 16.8933 57.8937 17.56C59.1204 18.2267 60.1604 19.1333 61.0138 20.28C61.8938 21.4267 62.3338 22.84 62.3338 24.52C62.3338 27.6667 61.1338 30.0933 58.7338 31.8C56.3604 33.48 53.1738 34.32 49.1738 34.32Z" fill="white"/>
<path d="M70.7928 12.72C69.6728 12.72 68.8328 12.4667 68.2728 11.96C67.7128 11.4267 67.4328 10.6933 67.4328 9.76C67.4328 8.82667 67.7928 8.05333 68.5128 7.44C69.2595 6.8 70.1795 6.48 71.2728 6.48C72.2595 6.48 73.0595 6.72 73.6728 7.2C74.2861 7.68 74.5928 8.36 74.5928 9.24C74.5928 10.3067 74.2461 11.16 73.5528 11.8C72.8595 12.4133 71.9395 12.72 70.7928 12.72ZM70.4728 34.2C68.7395 34.2 67.4728 33.5867 66.6728 32.36C65.8995 31.1333 65.5128 29.5067 65.5128 27.48C65.5128 26.28 65.6595 24.7467 65.9528 22.88C66.2728 20.9867 66.6728 19.2267 67.1528 17.6C67.3928 16.7467 67.7128 16.16 68.1128 15.84C68.5128 15.52 69.1528 15.36 70.0328 15.36C71.3928 15.36 72.0728 15.8133 72.0728 16.72C72.0728 17.3867 71.8195 18.9333 71.3128 21.36C70.6728 24.2933 70.3528 26.28 70.3528 27.32C70.3528 28.12 70.4595 28.7333 70.6728 29.16C70.8861 29.5867 71.2461 29.8 71.7528 29.8C72.2328 29.8 72.8328 29.4667 73.5528 28.8C74.2728 28.1333 75.2328 27.08 76.4328 25.64C76.7528 25.2667 77.1128 25.08 77.5128 25.08C77.8595 25.08 78.1261 25.24 78.3128 25.56C78.5261 25.88 78.6328 26.32 78.6328 26.88C78.6328 27.9467 78.3795 28.7733 77.8728 29.36C75.2328 32.5867 72.7661 34.2 70.4728 34.2Z" fill="white"/>
<path d="M95.8766 25.16C96.2232 25.16 96.4899 25.3333 96.6766 25.68C96.8899 26 96.9966 26.4133 96.9966 26.92C96.9966 27.5333 96.9032 28.0133 96.7166 28.36C96.5299 28.7067 96.2366 29.0133 95.8366 29.28C93.5432 30.8267 91.8632 31.9733 90.7966 32.72L88.2366 34.44C87.2232 39.96 85.8899 44.2933 84.2366 47.44C82.6099 50.6133 80.5299 52.2 77.9966 52.2C76.6366 52.2 75.5299 51.7733 74.6766 50.92C73.8232 50.0933 73.3966 49 73.3966 47.64C73.3966 45.7467 74.1432 43.7067 75.6366 41.52C77.1299 39.36 79.9299 36.6933 84.0366 33.52L84.2766 31.96C83.8232 32.68 83.2232 33.24 82.4766 33.64C81.7566 34.0133 81.0366 34.2 80.3166 34.2C78.6632 34.2 77.3432 33.6 76.3566 32.4C75.3699 31.2 74.8766 29.6267 74.8766 27.68C74.8766 25.5467 75.3699 23.5333 76.3566 21.64C77.3432 19.72 78.6499 18.1867 80.2766 17.04C81.9299 15.8667 83.6766 15.28 85.5166 15.28C86.1032 15.28 86.4899 15.4 86.6766 15.64C86.8899 15.8533 87.0632 16.2533 87.1966 16.84C87.7032 16.7333 88.2899 16.68 88.9566 16.68C89.6232 16.68 90.0899 16.7867 90.3566 17C90.6499 17.1867 90.7966 17.5733 90.7966 18.16C90.7966 18.48 90.7832 18.7333 90.7566 18.92C90.6499 19.7467 90.3166 21.84 89.7566 25.2C89.6499 25.84 89.5299 26.5467 89.3966 27.32C89.2899 28.0667 89.1699 28.8667 89.0366 29.72C91.0899 28.12 93.0632 26.7067 94.9566 25.48C95.3032 25.2667 95.6099 25.16 95.8766 25.16ZM81.7566 30.16C82.3699 30.16 82.9566 29.7867 83.5166 29.04C84.0766 28.2933 84.4766 27.2267 84.7166 25.84L85.9966 19C84.9032 19.0267 83.8899 19.4533 82.9566 20.28C82.0232 21.08 81.2766 22.1467 80.7166 23.48C80.1566 24.8133 79.8766 26.2267 79.8766 27.72C79.8766 28.5467 80.0366 29.16 80.3566 29.56C80.7032 29.96 81.1699 30.16 81.7566 30.16ZM78.4366 48.32C79.1032 48.32 79.8499 47.52 80.6766 45.92C81.5299 44.32 82.3432 41.7733 83.1166 38.28C81.0632 40.04 79.5832 41.6267 78.6766 43.04C77.7699 44.4533 77.3166 45.6933 77.3166 46.76C77.3166 47.2133 77.3966 47.5867 77.5566 47.88C77.7432 48.1733 78.0366 48.32 78.4366 48.32Z" fill="white"/>
<path d="M96.9475 34.2C95.9342 34.2 95.2142 33.6667 94.7875 32.6C94.3875 31.5333 94.1875 29.8267 94.1875 27.48C94.1875 24.0133 94.6808 20.72 95.6675 17.6C95.9075 16.8267 96.2942 16.2667 96.8275 15.92C97.3875 15.5467 98.1608 15.36 99.1475 15.36C99.6808 15.36 100.054 15.4267 100.268 15.56C100.481 15.6933 100.588 15.9467 100.588 16.32C100.588 16.7467 100.388 17.7067 99.9875 19.2C99.7208 20.2667 99.5075 21.2 99.3475 22C99.1875 22.8 99.0542 23.7867 98.9475 24.96C99.8275 22.6667 100.814 20.8 101.908 19.36C103.001 17.92 104.067 16.8933 105.107 16.28C106.174 15.6667 107.148 15.36 108.028 15.36C108.881 15.36 109.521 15.5867 109.948 16.04C110.401 16.4667 110.628 17.1067 110.628 17.96C110.628 18.6533 110.481 19.96 110.188 21.88C109.921 23.5067 109.708 25.0533 109.548 26.52C109.388 27.96 109.308 29.5733 109.308 31.36C109.308 32.3733 109.094 33.1067 108.668 33.56C108.268 33.9867 107.601 34.2 106.668 34.2C105.788 34.2 105.147 33.9733 104.747 33.52C104.347 33.0667 104.147 32.3867 104.147 31.48C104.147 30.4133 104.334 28.6533 104.708 26.2C105.028 24.0667 105.188 22.7067 105.188 22.12C105.188 21.6933 105.041 21.48 104.747 21.48C104.401 21.48 103.908 21.9333 103.268 22.84C102.654 23.72 102.014 24.8933 101.348 26.36C100.708 27.8267 100.187 29.3733 99.7875 31C99.4942 32.2533 99.1475 33.1067 98.7475 33.56C98.3742 33.9867 97.7742 34.2 96.9475 34.2Z" fill="white"/>
<path d="M128.148 34.2C126.948 34.2 125.962 33.6533 125.188 32.56C124.442 31.44 124.068 30.0533 124.068 28.4C124.068 26.4 124.202 24.5733 124.468 22.92C124.735 21.24 125.175 19.4667 125.788 17.6C126.055 16.8 126.428 16.2267 126.908 15.88C127.388 15.5333 128.148 15.36 129.188 15.36C129.775 15.36 130.175 15.4533 130.388 15.64C130.628 15.8267 130.748 16.1067 130.748 16.48C130.748 16.6933 130.602 17.4133 130.308 18.64C130.042 19.6267 129.828 20.52 129.668 21.32C129.135 24.12 128.868 25.9867 128.868 26.92C128.868 27.48 128.935 27.88 129.068 28.12C129.202 28.3333 129.415 28.44 129.708 28.44C130.108 28.44 130.602 28.04 131.188 27.24C131.802 26.44 132.442 25.2267 133.108 23.6C133.802 21.9733 134.468 19.9733 135.108 17.6C135.322 16.8 135.642 16.2267 136.068 15.88C136.522 15.5333 137.188 15.36 138.068 15.36C138.682 15.36 139.108 15.44 139.348 15.6C139.588 15.7333 139.708 16 139.708 16.4C139.708 17.0667 139.375 18.8933 138.708 21.88C137.962 25.2933 137.588 27.4 137.588 28.2C137.588 28.7067 137.695 29.1067 137.908 29.4C138.122 29.6667 138.402 29.8 138.748 29.8C139.282 29.8 139.908 29.48 140.628 28.84C141.375 28.1733 142.362 27.1067 143.588 25.64C143.908 25.2667 144.268 25.08 144.668 25.08C145.015 25.08 145.282 25.24 145.468 25.56C145.682 25.88 145.788 26.32 145.788 26.88C145.788 27.9467 145.535 28.7733 145.028 29.36C143.882 30.7733 142.642 31.9333 141.308 32.84C140.002 33.7467 138.508 34.2 136.828 34.2C135.548 34.2 134.602 33.7067 133.988 32.72C133.402 31.7333 133.108 30.3467 133.108 28.56C132.655 30.3733 131.975 31.7733 131.068 32.76C130.162 33.72 129.188 34.2 128.148 34.2Z" fill="white"/>
<path d="M158.385 21.8C158.385 23.9067 157.892 25.9067 156.905 27.8C155.945 29.6667 154.652 31.1867 153.025 32.36C151.425 33.5333 149.705 34.1467 147.865 34.2C147.518 39.3467 146.732 43.64 145.505 47.08C144.278 50.5467 142.478 52.28 140.105 52.28C138.665 52.28 137.598 51.76 136.905 50.72C136.212 49.68 135.865 48.24 135.865 46.4C135.865 43.7867 136.465 40.7333 137.665 37.24C138.865 33.7733 140.718 29.9467 143.225 25.76C143.225 21.8667 143.198 19.16 143.145 17.64C143.118 16.8667 143.425 16.2533 144.065 15.8C144.705 15.3467 145.505 15.12 146.465 15.12C147.025 15.12 147.425 15.24 147.665 15.48C147.932 15.6933 148.078 16.1333 148.105 16.8C148.105 17.4667 148.118 17.96 148.145 18.28C148.998 17.2133 149.838 16.4533 150.665 16C151.492 15.52 152.372 15.28 153.305 15.28C154.798 15.28 156.012 15.88 156.945 17.08C157.905 18.28 158.385 19.8533 158.385 21.8ZM148.065 30.36C149.025 30.1467 149.905 29.6267 150.705 28.8C151.532 27.9467 152.185 26.9067 152.665 25.68C153.145 24.4267 153.385 23.12 153.385 21.76C153.385 20.96 153.225 20.36 152.905 19.96C152.585 19.5333 152.158 19.32 151.625 19.32C150.665 19.32 149.505 20.3333 148.145 22.36C148.118 23.5333 148.105 25.2533 148.105 27.52C148.105 28.7467 148.092 29.6933 148.065 30.36ZM140.425 48.36C141.145 48.36 141.745 46.7867 142.225 43.64C142.705 40.52 143.012 36.6267 143.145 31.96C141.998 34.6267 141.092 37.1733 140.425 39.6C139.758 42.0267 139.425 44.0667 139.425 45.72C139.425 46.5733 139.532 47.2267 139.745 47.68C139.932 48.1333 140.158 48.36 140.425 48.36Z" fill="white"/>
</svg>
