<svg width="150" height="150" viewBox="0 0 150 150" fill="none" xmlns="http://www.w3.org/2000/svg">
<path d="M0 9C0 4.02944 4.02944 0 9 0H141C145.971 0 150 4.02944 150 9V141C150 145.971 145.971 150 141 150H9C4.02944 150 0 145.971 0 141V9Z" fill="#5AB1BB"/>
<path d="M75 24.1667C47.9058 47.2958 34.3333 67.2733 34.3333 84.15C34.3333 109.465 53.65 125.833 75 125.833C96.35 125.833 115.667 109.465 115.667 84.15C115.667 67.2733 102.094 47.2958 75 24.1667ZM53.8025 85.1667C55.6833 85.1667 57.2083 86.4883 57.5642 88.3183C59.6483 99.6033 69.1542 103.467 76.0675 102.907C78.2533 102.806 80.0833 104.534 80.0833 106.72C80.0833 108.753 78.4567 110.431 76.4233 110.532C65.5958 111.193 52.9383 104.992 50.0408 89.5892C49.6342 87.3017 51.4642 85.1667 53.8025 85.1667Z" fill="#F7DD72"/>
</svg>
